<svg width="60" height="60" viewBox="0 0 60 60" fill="none" xmlns="http://www.w3.org/2000/svg">
<g id="Group">
<g id="Group_2">
<g id="Group_3">
<g id="Group_4">
<path id="Vector" d="M2.76487 1.34466e-06L3.77829 3.77829L-6.72328e-07 2.76487L2.76487 1.34466e-06Z" transform="translate(41.1807 41.076)" fill="#525252"/>
<g id="Group_5">
<path id="Vector_2" d="M21.1083 28.0535C21.1028 28.0535 21.0973 28.048 21.0918 28.0425C21.0642 28.0205 21.0367 27.9984 21.0092 27.9709L0.239585 7.19582C-0.0798618 6.87638 -0.0798618 6.35865 0.239585 6.0337L6.0337 0.239585C6.35315 -0.0798622 6.87087 -0.0798622 7.19582 0.239585L27.9654 21.0092C27.9929 21.0367 28.015 21.0642 28.037 21.0918C28.0425 21.0973 28.048 21.1028 28.048 21.1083L28.2022 21.6701C28.1857 21.8518 28.1086 22.0281 27.9654 22.1658L22.1658 27.9654C22.0281 28.1031 21.8518 28.1802 21.6701 28.2022L21.1083 28.0535Z" transform="translate(14.3772 14.2617)" fill="#41C0BF"/>
<path id="Vector_3" opacity="0.1" d="M3.36164e-07 0.239585C0.319448 -0.0798618 0.837173 -0.0798618 1.16213 0.239585L21.9317 21.0092C21.9592 21.0367 21.9813 21.0642 22.0033 21.0918C22.0088 21.0973 22.0143 21.1028 22.0143 21.1083L22.1685 21.6701C22.152 21.8518 22.0749 22.0281 21.9317 22.1658L3.36164e-07 0.239585Z" transform="translate(20.4055 14.2672)" fill="#231F20"/>
<path id="Vector_4" d="M6.95073 0L6.95624 0.0220322L7.11045 0.589326L8.22301 4.74765L8.48188 5.72251L5.717 8.48738L4.74765 8.22852L0.583816 7.11045L0.0220322 6.96175L0 6.95073L6.95073 0Z" transform="translate(35.4636 35.3535)" fill="#C49A6C"/>
<path id="Vector_5" opacity="0.1" d="M25.0656 21.7995L24.6911 21.425L3.39275 0.126677L3.26607 -3.36164e-07L2.89706 0.363509L0 3.26056L21.4305 24.6856L21.9317 25.1868L25.0546 28.3151L27.4504 30.7055L25.0656 21.7995Z" transform="translate(17.5083 14.1433)" fill="#231F20"/>
</g>
</g>
<g id="Group_6">
<path id="Vector_6" d="M7.30163 33.298C6.89956 33.7001 6.31575 33.7662 5.9963 33.4467L0.202187 27.6526C-0.11726 27.3332 -0.0511675 26.7494 0.350895 26.3473L26.3473 0.350896C26.7494 -0.0511673 27.3332 -0.117261 27.6526 0.202187L33.4467 5.9963C33.7662 6.31575 33.7001 6.89956 33.298 7.30163L7.30163 33.298Z" transform="translate(13.1809 12.5641)" fill="#525252"/>
<g id="Group_7">
<path id="Vector_7" d="M0 -1.68082e-07L1.76247 1.76247" transform="translate(38.741 13.6917)" stroke="#41C0BF" stroke-width="0.5" stroke-miterlimit="10"/>
<path id="Vector_8" d="M1.34466e-06 -6.72328e-07L1.76247 1.76247" transform="translate(37.1929 15.2393)" stroke="#41C0BF" stroke-width="0.5" stroke-miterlimit="10"/>
<path id="Vector_9" d="M1.34466e-06 -3.36164e-07L1.75696 1.76247" transform="translate(35.761 16.6768)" stroke="#41C0BF" stroke-width="0.5" stroke-miterlimit="10"/>
<path id="Vector_10" d="M6.72328e-07 0L3.1449 3.1394" transform="translate(34.1531 18.2796)" stroke="#41C0BF" stroke-width="0.5" stroke-miterlimit="10"/>
<path id="Vector_11" d="M-1.34466e-06 3.36164e-07L1.76247 1.76247" transform="translate(32.6602 19.7722)" stroke="#41C0BF" stroke-width="0.5" stroke-miterlimit="10"/>
<path id="Vector_12" d="M-1.34466e-06 6.72328e-07L1.75696 1.75696" transform="translate(31.2834 21.1546)" stroke="#41C0BF" stroke-width="0.5" stroke-miterlimit="10"/>
<path id="Vector_13" d="M0 -6.72328e-07L1.75696 1.75696" transform="translate(29.8457 22.5921)" stroke="#41C0BF" stroke-width="0.5" stroke-miterlimit="10"/>
<path id="Vector_14" d="M-3.36164e-07 -3.36164e-07L1.75696 1.75696" transform="translate(28.2427 24.1949)" stroke="#41C0BF" stroke-width="0.5" stroke-miterlimit="10"/>
<path id="Vector_15" d="M6.72328e-07 0L3.1394 3.1449" transform="translate(26.5247 25.9077)" stroke="#41C0BF" stroke-width="0.5" stroke-miterlimit="10"/>
<path id="Vector_16" d="M6.72328e-07 3.36164e-07L1.75696 1.75696" transform="translate(25.1479 27.2902)" stroke="#41C0BF" stroke-width="0.5" stroke-miterlimit="10"/>
<path id="Vector_17" d="M3.36164e-07 6.72328e-07L1.75696 1.75696" transform="translate(23.8206 28.6176)" stroke="#41C0BF" stroke-width="0.5" stroke-miterlimit="10"/>
<path id="Vector_18" d="M0 -6.72328e-07L1.75696 1.75696" transform="translate(22.438 30)" stroke="#41C0BF" stroke-width="0.5" stroke-miterlimit="10"/>
<path id="Vector_19" d="M-3.36164e-07 1.34466e-06L1.75696 1.75696" transform="translate(21.1106 31.3274)" stroke="#41C0BF" stroke-width="0.5" stroke-miterlimit="10"/>
<path id="Vector_20" d="M-6.72328e-07 0L3.13939 3.1394" transform="translate(19.5078 32.9301)" stroke="#41C0BF" stroke-width="0.5" stroke-miterlimit="10"/>
<path id="Vector_21" d="M6.72328e-07 -1.34466e-06L1.75696 1.75696" transform="translate(18.0154 34.4227)" stroke="#41C0BF" stroke-width="0.5" stroke-miterlimit="10"/>
<path id="Vector_22" d="M3.36164e-07 6.72328e-07L1.75696 1.75696" transform="translate(16.6328 35.8051)" stroke="#41C0BF" stroke-width="0.5" stroke-miterlimit="10"/>
<path id="Vector_23" d="M3.36164e-07 6.72328e-07L1.75696 1.75696" transform="translate(15.5315 36.9067)" stroke="#41C0BF" stroke-width="0.5" stroke-miterlimit="10"/>
<path id="Vector_24" d="M-3.36164e-07 1.34466e-06L3.13939 3.1394" transform="translate(13.4824 38.9556)" stroke="#41C0BF" stroke-width="0.5" stroke-miterlimit="10"/>
<path id="Vector_25" d="M0 -6.72328e-07L1.75696 1.75696" transform="translate(14.5894 37.8485)" stroke="#41C0BF" stroke-width="0.5" stroke-miterlimit="10"/>
</g>
</g>
</g>
<path id="Vector_26" d="M55 27.5C55 42.6878 42.6878 55 27.5 55C12.3122 55 0 42.6878 0 27.5C0 12.3122 12.3122 0 27.5 0C42.6878 0 55 12.3122 55 27.5Z" transform="translate(2.5 2.5)" stroke="#41C0BF" stroke-width="5" stroke-miterlimit="10"/>
</g>
</g>
</svg>
